<svg xmlns="http://www.w3.org/2000/svg" enable-background="new 0 0 512 512" viewBox="0 0 512 512" id="costume"><path fill="#00cbf6" d="M371.497,297.357H140.503c-2.945,0-5.334-2.388-5.334-5.334v-31.955c0-2.945,2.388-5.334,5.334-5.334h230.994c2.945,0,5.334,2.388,5.334,5.334v31.955C376.831,294.969,374.442,297.357,371.497,297.357z M145.836,286.69h220.327v-21.289H145.836V286.69z"></path><path fill="#00cbf6" d="M371.497,265.401H140.503c-2.945,0-5.334-2.388-5.334-5.334v-31.958c0-2.945,2.388-5.334,5.334-5.334h230.994c2.945,0,5.334,2.388,5.334,5.334v31.958C376.831,263.013,374.442,265.401,371.497,265.401z M145.836,254.735h220.327v-21.291H145.836V254.735z"></path><path fill="#00cbf6" d="M371.497,233.442H140.503c-2.945,0-5.334-2.388-5.334-5.334v-31.955c0-2.945,2.388-5.334,5.334-5.334h230.994c2.945,0,5.334,2.388,5.334,5.334v31.955C376.831,231.055,374.442,233.442,371.497,233.442z M145.836,222.776h220.327v-21.289H145.836V222.776z"></path><path fill="#0635c9" d="M509.028,223.69l-6.969-20.049v-0.003c-2.896-8.336-12.039-12.753-20.368-9.857l-2.806,0.975l-26.545-96.387c-8.016-29.074-30.932-52.378-59.8-60.818l-64.018-18.79C325.129,7.932,315.12,0,303.189,0h-94.38c-11.931,0-21.94,7.931-25.334,18.76l-64.013,18.788C90.592,45.99,67.675,69.294,59.659,98.37l-26.545,96.385l-2.809-0.977c-8.336-2.893-17.472,1.523-20.365,9.859v0.003l-6.969,20.046c-2.898,8.333,1.523,17.472,9.857,20.368l6.105,2.123l-3.704,13.482c-6.656,24.31,6.685,50.065,30.375,58.638l89.565,32.336v134.701c0,14.703,11.963,26.667,26.667,26.667h188.328c14.704,0,26.667-11.963,26.667-26.667V350.632l89.57-32.336c23.685-8.573,37.026-34.329,30.37-58.643l-3.703-13.476l6.105-2.123C507.505,241.159,511.926,232.02,509.028,223.69z M208.81,10.667h94.38c22.411,0,14.604,30.244,16,37.547c0,5.112-2.471,9.953-6.612,12.955L256,102.178L199.422,61.17c-4.141-3.002-6.612-7.844-6.612-12.955C194.22,40.839,186.351,10.667,208.81,10.667z M16.334,233.981c-2.777-0.968-4.258-3.993-3.289-6.791l6.969-20.049c0.966-2.776,4.023-4.255,6.789-3.287l52.875,18.385c2.785,0.97,4.255,4.003,3.289,6.789l-6.971,20.049c-0.966,2.778-4.021,4.247-6.789,3.287L16.334,233.981z M140.503,131.825c-2.945,0-5.334,2.388-5.334,5.334v202.135l-85.94-31.029c-18.495-6.693-28.909-26.807-23.714-45.783l3.516-12.794l36.669,12.75c8.293,2.888,17.457-1.484,20.368-9.854l6.971-20.049c2.898-8.334-1.523-17.472-9.857-20.368l-39.971-13.9l26.729-97.064c7.042-25.536,27.164-46.005,52.523-53.42l59.68-17.516v17.945c0,8.518,4.119,16.591,11.018,21.591l53.878,39.049L145.837,185.43v-48.271C145.836,134.214,143.448,131.825,140.503,131.825z M462.776,308.266l-85.945,31.029V137.159c0-2.945-2.388-5.334-5.334-5.334c-2.945,0-5.334,2.388-5.334,5.334v348.173c0,8.823-7.177,16-16,16h-88.807V373.789c0-2.945-2.388-5.334-5.334-5.334c-2.945,0-5.334,2.388-5.334,5.334v127.544h-88.854c-8.823,0-16-7.177-16-16V198.806l113.353-85.768l59.649-43.233c6.899-5,11.018-13.073,11.018-21.591V30.268l59.685,17.52c25.354,7.411,45.477,27.88,52.515,53.416l26.732,97.065l-39.972,13.899c-8.334,2.896-12.755,12.034-9.857,20.368l6.971,20.049c2.905,8.356,12.061,12.748,20.368,9.854l36.669-12.75l3.515,12.789C491.679,281.459,481.265,301.573,462.776,308.266z M495.666,233.981l-52.872,18.383c-2.781,0.961-5.826-0.507-6.789-3.287l-6.971-20.049c-0.967-2.786,0.503-5.819,3.289-6.789l52.872-18.383c2.803-0.972,5.832,0.529,6.791,3.284l6.969,20.053C499.922,229.98,498.452,233.012,495.666,233.981z"></path><path fill="#0635c9" d="M455.45 225.435l-9.571 3.329c-2.781.966-4.252 4.005-3.284 6.789.765 2.2 2.828 3.583 5.037 3.583 1.588 0 2.084-.507 11.323-3.627 2.781-.966 4.252-4.005 3.284-6.789C461.271 225.937 458.242 224.458 455.45 225.435zM66.12 228.763l-9.571-3.329c-2.795-.974-5.82.502-6.789 3.284-.969 2.783.502 5.823 3.284 6.789l9.571 3.329c2.783.974 5.823-.506 6.789-3.284C70.373 232.768 68.902 229.729 66.12 228.763z"></path></svg>